<?xml version="1.0" encoding="utf-8"?>
<!-- Generator: Adobe Illustrator 27.5.0, SVG Export Plug-In . SVG Version: 6.00 Build 0)  -->
<svg version="1.1" xmlns="http://www.w3.org/2000/svg" xmlns:xlink="http://www.w3.org/1999/xlink" x="0px" y="0px"
	 viewBox="0 0 500 500" style="enable-background:new 0 0 500 500;" xml:space="preserve">
<g id="BACKGROUND">
	<rect style="fill:#FFF1E4;" width="500" height="500"/>
</g>
<g id="OBJECTS">
	<circle style="fill:#F9D7B1;" cx="250" cy="132.842" r="72.91"/>
	<g>
		<g>
			<path style="fill:#743B35;" d="M355.497,316.696l-13.989-50.107l0.08-5.768l0.258-17.57c0,0,7.012-2.96,9.963-25.036
				c0.346-2.648,0.649-5.563,0.862-8.789l-7.11-34.839l-53.778-5.404c0,0-2.177,0.48-5.794,1.244
				c-16.122,3.404-60.976,12.522-70.646,10.594c-6.628-1.322-15.104-3.44-21.048-6.622c-6.55-3.506-11.284-7.577-19.072-8.639
				c0.78,0.755,1.324,1.75,1.54,2.814c-2.299-0.315-4.656-0.193-6.91,0.358c-2.059,0.503-4.264,2.262-6.34,3.157
				c-2.332,1.004-4.606,2.146-6.84,3.351c-5.575,3.005-10.922,6.465-15.947,10.321c-9.651,7.406-20.355,17.507-22.451,30.101
				c-3.724,22.316-13.873,58.515-13.873,58.515s1.431,52.889,2.453,61.412l-1.484,3.99l-3.377,6.115c0,0,1.04-0.258-0.782,5.332
				c-1.822,5.59,13.198,11.732,13.198,11.732l22.085,8.478l18.495,0.409v-3.902c0.258-6.115-13.527-5.466-13.527-5.466
				l-10.816-8.887l4.87-4.133l15.562-41.94l7.439-8.789l5.075,4.053c0,0-6.319,47.77-3.946,52.845
				c0.08,0.169,0.187,0.338,0.32,0.498l-1.715,3.102c0,0,1.04-0.258-0.782,5.332c-1.822,5.59,15.864,7.288,15.864,7.288h40.58
				v-3.902c0.258-6.115-13.527-5.466-13.527-5.466l-8.994-2.639c6.79-13.349,26.156-51.307,27-51.307c1.013,0,6.763-8.79,6.763-8.79
				s27.391,7.439,50.729,9.474l11.163,40.58l0.551,4.959l-2.151,3.884c0,0,1.04-0.258-0.782,5.332
				c-1.822,5.599,15.873,7.288,15.873,7.288h40.571v-3.902c0.267-6.115-13.527-5.466-13.527-5.466l-14.771-4.337l3.662-10.123
				l-3.039-45.326c0,0,0.071,0.107,0.071,0.116l2.542,3.848l14.016,21.276l1.591,12.611c0,0-4.284,3.457-7.572,7.581
				c-3.297,4.115,5.599,10.203,5.599,10.203c10.7,5.599,22.716-9.874,22.716-9.874l4.746-28.795
				C357.141,319.069,356.421,318.012,355.497,316.696z"/>
			<path style="fill:none;stroke:#260603;stroke-miterlimit:10;" d="M313.433,302.103l-1.23-20.682c0,0,13.786-32.775,11.445-56.706
				"/>
			<path style="fill:none;stroke:#260603;stroke-miterlimit:10;" d="M275.884,309.213c0,0-7.113-25.944-7.121-25.971
				c-0.917-3.344-4.683-7.268-6.376-10.324c-4.014-7.246-8.504-14.695-10.96-22.599c-5.186-16.688-4.215-35.283,2.978-51.237"/>
			<path style="fill:none;stroke:#260603;stroke-miterlimit:10;" d="M225.154,299.739c0,0,19.157-52.394-15.439-91.411"/>
			<path style="fill:none;stroke:#260603;stroke-miterlimit:10;" d="M163.414,301.971l-6.503-10.925
				c0,0-38.758-51.243-32.515-81.417"/>
			<path style="fill:none;stroke:#260603;stroke-miterlimit:10;" d="M322.386,365.393c0.356-0.595,0.966-0.987,1.576-1.317
				c4.082-2.217,9.122-2.586,13.484-0.989"/>
			<path style="fill:none;stroke:#260603;stroke-miterlimit:10;" d="M193.535,365.318c1.896-2.302,5.206-2.763,8.188-2.819
				c3.574-0.067,7.253,0.235,10.473,1.786"/>
			<path style="fill:none;stroke:#260603;stroke-miterlimit:10;" d="M134.942,365.233c0.721-0.667,1.566-1.202,2.478-1.567
				c0.827-0.332,1.703-0.524,2.58-0.68c3.648-0.648,7.542-0.659,10.903,0.9"/>
			<path style="fill:none;stroke:#260603;stroke-miterlimit:10;" d="M330.904,340.541c2.762-2.243,6.69-2.957,10.065-1.829"/>
			<path style="fill:none;stroke:#260603;stroke-miterlimit:10;" d="M342.05,243.03c-2.928,7.757-5.892,15.586-10.453,22.509
				c-4.561,6.923-10.92,12.963-18.781,15.598"/>
			<path style="fill:#260603;" d="M341.846,243.251l-0.258,17.57c-10.203,14.984-23.632,24.956-23.632,24.956l-1.911,20.29
				l-2.542-3.848c0,0,0,0,0-0.009c-0.373-5.332-1.298-20.788-1.298-20.788l4.284-1.84c8.123-3.359,15.953-15.331,15.953-15.331
				C336.78,257.595,341.846,243.251,341.846,243.251z"/>
			<path style="fill:#260603;" d="M151.078,307.516l7.439-8.789l4.508,3.505l-0.325-1.626l-12.616-19.509
				c0,0-20.549-31.409-21.98-42.009l14.242,38.628C142.345,277.715,151.097,291.731,151.078,307.516z"/>
		</g>
		<g>
			<path style="fill:#260603;" d="M352.671,209.426c-0.213,3.226-0.516,6.141-0.862,8.789c-6.381,0.471-11.115,11.733-17.496,12.524
				c-4.444,0.542-35.873-23.26-39.516-29.375c-3.555-5.963-5.092-12.887-6.275-19.721c-0.658-3.786-1.235-7.608-2.533-11.216
				c3.617-0.764,5.794-1.244,5.794-1.244l53.778,5.404L352.671,209.426z"/>
			<g>
				<path style="fill:#743B35;" d="M378.812,185.686c-4.46,8.466-9.285,16.086-16.603,18.662c-6.745,2.389-26.94,11.469-30.318,13
					c-0.098,0.041-0.178,0.082-0.24,0.102c-0.062-0.021-0.142-0.061-0.24-0.102c-3.377-1.531-23.573-10.611-30.318-13
					c-7.318-2.577-12.143-10.196-16.602-18.662c-4.344-8.247,3.27-27.315,3.27-27.315s1.722-3.669,4.069-8.222
					c0.822-1.577,1.711-3.268,2.627-4.95c2.617-4.773,5.459-9.486,7.537-11.544c1.413-1.398,3.889-2.332,6.702-2.945
					c4.155-0.916,8.28-0.824,12.478-1.161c4.305-0.346,8.381-3.107,12.43-4.842c-0.669,0.776-1.338,1.552-2.007,2.328
					c4.151-1.008,8.454-1.392,12.718-1.133c-1.61-0.098-3.758,2.035-4.376,3.296c4.854,0.854,9.792,0.438,14.677,1.514
					c2.804,0.613,5.28,1.546,6.693,2.944c2.078,2.058,4.92,6.771,7.537,11.544c0.916,1.682,1.805,3.373,2.627,4.95
					c2.347,4.553,4.069,8.222,4.069,8.222S383.156,177.439,378.812,185.686z"/>
				<path style="fill:#743B35;" d="M325.798,132.001c-0.747-0.027-10.345-0.329-17.793,1.324h-0.009
					c-3.191,0.702-5.981,1.769-7.519,3.359c-2.249,2.329-5.172,7.599-7.794,12.851c-0.907,1.831-1.778,3.662-2.577,5.359
					c-0.533-0.773-1.04-1.555-1.52-2.364c-2.506-4.168-4.382-8.727-5.519-13.464c-0.649-2.702-1.066-5.457-1.227-8.221
					c-0.142-2.409-0.098-4.853,0.56-7.172c0.649-2.311,1.964-4.506,3.955-5.857c0.827-0.569,1.777-0.986,2.773-1.066
					c0.995-0.089,1.991,0.142,2.942,0.462c4.275,1.431,7.821,4.444,11.811,6.541c2.462,1.289,5.084,2.231,7.705,3.164
					C316.324,128.615,321.061,130.313,325.798,132.001z"/>
				<path style="fill:#F9D7B1;" d="M307.996,133.326c-3.191,0.702-5.981,1.769-7.519,3.359c-2.249,2.329-5.172,7.599-7.794,12.851
					c-0.089-0.187-0.169-0.364-0.249-0.524c-2.595-4.87-3.91-10.425-3.724-15.944c0.045-1.493,0.24-3.084,1.218-4.213
					c0.924-1.075,2.417-1.529,3.839-1.493c1.413,0.036,2.782,0.507,4.106,1.022C301.366,129.762,304.708,131.495,307.996,133.326z"
					/>
				<path style="fill:#743B35;" d="M337.117,131.319c0.746-0.027,10.345-0.329,17.793,1.324h0.009
					c3.19,0.702,5.981,1.769,7.519,3.359c2.249,2.329,5.173,7.599,7.794,12.851c0.907,1.831,1.777,3.662,2.577,5.359
					c0.533-0.773,1.04-1.555,1.52-2.364c2.506-4.168,4.382-8.727,5.519-13.464c0.649-2.702,1.066-5.457,1.227-8.221
					c0.142-2.409,0.098-4.853-0.56-7.172c-0.649-2.311-1.964-4.506-3.955-5.857c-0.827-0.569-1.777-0.986-2.773-1.066
					c-0.995-0.089-1.991,0.142-2.942,0.462c-4.275,1.431-7.821,4.444-11.811,6.541c-2.462,1.289-5.084,2.231-7.705,3.164
					C346.591,127.933,341.854,129.63,337.117,131.319z"/>
				<path style="fill:#F9D7B1;" d="M354.918,132.643c3.19,0.702,5.981,1.769,7.519,3.359c2.249,2.329,5.173,7.599,7.794,12.851
					c0.089-0.187,0.169-0.364,0.249-0.524c2.595-4.87,3.91-10.425,3.724-15.944c-0.044-1.493-0.24-3.084-1.218-4.213
					c-0.924-1.075-2.417-1.529-3.839-1.493c-1.413,0.036-2.782,0.507-4.106,1.022C361.548,129.079,358.206,130.812,354.918,132.643z
					"/>
				<path style="fill:#F9D7B1;" d="M350.786,197.258c-3.567,6.969-17.504,6.284-18.344,6.248c-4.048-0.175-7.871,0.116-11.754-1.375
					c-3.247-1.247-5.899-3.551-7.288-6.774c-1.398-3.245-1.499-6.921-1.141-10.385c0.433-4.192,1.938-8.935,5.391-11.614
					c0.921-0.715,1.952-1.294,2.793-2.102c1.201-1.155,1.949-2.715,3.147-3.873c2.105-2.034,5.525-3.201,8.395-3.274
					c2.785-0.071,6.666,0.512,8.89,2.37c1.584,1.323,1.459,3.814,3.42,5.018C354.045,176.433,354.542,188.129,350.786,197.258z"/>
				<g>
					<path style="fill:#845F56;" d="M332.521,184.843l1.075,0.169c0.08-1.146,0.116-2.284,0.107-3.431
						c0-0.72-0.018-1.449,0.16-2.151c0.178-0.702,0.578-1.378,1.218-1.707c0.693-0.364,1.546-0.266,2.284,0.009
						c0.409,0.151,0.8,0.347,1.111,0.658c0.293,0.302,0.498,0.684,0.649,1.075c0.773,2.009,0.355,4.417-1.013,6.079
						c1.378-0.24,5.11-0.915,5.537-1.546c0.516-0.782-1.369-9.234-3.253-10.087c-1.857-0.835-6.497-2.48-7.936-2.213
						c-1.44-0.267-6.079,1.378-7.936,2.213c-1.884,0.853-3.768,9.305-3.253,10.087c0.427,0.631,4.159,1.307,5.537,1.546
						c-1.369-1.662-1.786-4.07-1.013-6.079c0.151-0.391,0.355-0.773,0.649-1.075c0.311-0.311,0.702-0.507,1.111-0.658
						c0.738-0.275,1.591-0.373,2.284-0.009c0.64,0.329,1.04,1.004,1.218,1.707c0.178,0.702,0.16,1.431,0.16,2.151
						c-0.009,1.147,0.027,2.284,0.107,3.431l1.075-0.169H332.521z"/>
					<path style="fill:#260603;" d="M331.321,185.012l-3.999,0.613c0,0-0.195-0.027-0.515-0.08c-1.369-1.662-1.786-4.07-1.013-6.079
						c0.151-0.391,0.355-0.773,0.649-1.075c0.311-0.311,0.702-0.507,1.111-0.658c0.738-0.275,1.591-0.373,2.284-0.009
						c0.64,0.329,1.04,1.004,1.218,1.707c0.178,0.702,0.16,1.431,0.16,2.151C331.205,182.727,331.241,183.865,331.321,185.012z"/>
					<path style="fill:#260603;" d="M333.594,185.012l3.999,0.613c0,0,0.196-0.027,0.516-0.08c1.369-1.662,1.786-4.07,1.013-6.079
						c-0.151-0.391-0.355-0.773-0.649-1.075c-0.311-0.311-0.702-0.507-1.111-0.658c-0.738-0.275-1.591-0.373-2.284-0.009
						c-0.64,0.329-1.04,1.004-1.218,1.707c-0.178,0.702-0.16,1.431-0.16,2.151C333.709,182.727,333.674,183.865,333.594,185.012z"/>
				</g>
				<path style="fill:#260603;" d="M332.521,193.419c0,0.009,0,0.009,0,0.009h-0.125L332.521,193.419z"/>
				<path style="fill:#260603;" d="M332.521,193.428h-0.125c0,0,0,0,0-0.009L332.521,193.428z"/>
				<g>
					<path style="fill:#260603;" d="M318.868,157.333c0,0,4.037,5.241,5.737,5.701c1.7,0.46-9.03,1.416-9.03,1.416L318.868,157.333z
						"/>
					<circle style="fill:#F0B250;" cx="314.628" cy="160.03" r="5.075"/>
					<path style="fill:#260603;" d="M318.019,160.03c0,1.873-1.518,3.391-3.391,3.391c-1.873,0-3.391-1.518-3.391-3.391
						s1.518-3.391,3.391-3.391C316.501,156.639,318.019,158.158,318.019,160.03z"/>
					<path style="fill:#F9D7B1;" d="M318.203,158.261c0,1.354-1.098,2.452-2.452,2.452c-1.354,0-2.452-1.098-2.452-2.452
						s1.098-2.452,2.452-2.452C317.105,155.809,318.203,156.907,318.203,158.261z"/>
					<path style="fill:#F9D7B1;" d="M314.451,161.715c0,0.375-0.304,0.68-0.68,0.68c-0.375,0-0.68-0.304-0.68-0.68
						c0-0.375,0.304-0.68,0.68-0.68C314.147,161.035,314.451,161.34,314.451,161.715z"/>
				</g>
				<g>
					<path style="fill:#260603;" d="M345.134,157.333c0,0-4.037,5.241-5.737,5.701c-1.7,0.46,9.03,1.416,9.03,1.416L345.134,157.333
						z"/>
					<circle style="fill:#F0B250;" cx="349.374" cy="160.03" r="5.075"/>
					<path style="fill:#260603;" d="M345.983,160.03c0,1.873,1.518,3.391,3.391,3.391c1.873,0,3.391-1.518,3.391-3.391
						s-1.518-3.391-3.391-3.391C347.502,156.639,345.983,158.158,345.983,160.03z"/>
					<path style="fill:#F9D7B1;" d="M349.388,156.163c-1.196,0.635-1.651,2.12-1.016,3.316c0.635,1.196,2.12,1.651,3.316,1.016
						c1.196-0.635,1.651-2.12,1.016-3.316C352.069,155.983,350.584,155.528,349.388,156.163z"/>
					<path style="fill:#F9D7B1;" d="M348.097,161.096c-0.332,0.176-0.458,0.588-0.281,0.919c0.176,0.331,0.587,0.458,0.919,0.281
						c0.331-0.176,0.458-0.587,0.281-0.919C348.84,161.046,348.429,160.92,348.097,161.096z"/>
				</g>
				<path style="fill:none;stroke:#260603;stroke-miterlimit:10;" d="M343.14,149.413c2.047-0.58,4.216-0.728,6.323-0.432
					c1.102,0.155,2.201,0.435,3.173,0.976c1.758,0.978,2.949,2.705,4.076,4.372c0.795,1.176,1.589,2.351,2.384,3.527"/>
				<path style="fill:none;stroke:#260603;stroke-miterlimit:10;" d="M320.329,148.417c-1.31,0.011-2.62,0.023-3.93,0.035
					c-1.045,0.009-2.095,0.019-3.126,0.191c-3.48,0.58-6.56,3.135-7.772,6.448"/>
				<path style="fill:none;stroke:#260603;stroke-miterlimit:10;" d="M369.396,164.258c4.771,9.258,3.799,21.192-2.408,29.555
					c-0.424-0.742-0.848-1.484-1.272-2.226c-3.557,6.984-8.801,13.101-15.159,17.682"/>
				<path style="fill:none;stroke:#260603;stroke-miterlimit:10;" d="M292.223,164.258c-4.771,9.258-3.799,21.192,2.408,29.555
					c0.424-0.742,0.848-1.484,1.272-2.226c3.557,6.984,8.801,13.101,15.159,17.682"/>
				<path style="fill:none;stroke:#260603;stroke-miterlimit:10;" d="M323.648,191.16c6.711-0.641,15.396,2.467,20.196-3.791"/>
				<path style="fill:none;stroke:#260603;stroke-miterlimit:10;" d="M355.412,132.763c0,0,6.711,0.895,10.559,8.59l6.98,12.438"/>
				<path style="fill:none;stroke:#260603;stroke-miterlimit:10;" d="M307.897,132.763c0,0-6.711,0.895-10.559,8.59l-6.98,12.438"/>
			</g>
			<path style="fill:#260603;" d="M327.898,191.915c1.269,0.389,2.441,1.038,3.685,1.499c1.244,0.461,2.63,0.728,3.892,0.321
				c1.228-0.396,2.185-1.677,2.964-2.705c-2.079-0.009-4.166,0.284-6.245,0.274c-1.017-0.005-2.034-0.009-3.052-0.014
				c-0.89-0.004-2.168-0.232-2.993,0.031C326.302,191.774,327.476,191.785,327.898,191.915z"/>
		</g>
		<path style="fill:#260603;" d="M339.835,163.067c0,0,8.324-7.088,13.331-6.568c0,0-4.552-4.487-8.519,1.301L339.835,163.067z"/>
		<path style="fill:#260603;" d="M324.077,163.067c0,0-8.324-7.088-13.331-6.568c0,0,4.552-4.487,8.519,1.301L324.077,163.067z"/>
	</g>
	<g>
		<polygon style="fill:#F9D7B1;" points="410.926,395.535 285.264,395.535 312.652,363.314 357.761,359.286 399.649,346.398 
			441.536,360.898 436.703,396.341 		"/>
		<polyline style="fill:none;stroke:#260603;stroke-miterlimit:10;" points="441.536,360.898 378.168,369.221 321.781,395.535 		"/>
	</g>
	<g>
		<polygon style="fill:#F9D7B1;" points="165.144,387.607 39.482,387.607 66.87,355.386 111.979,351.359 153.867,338.47 
			195.755,352.97 190.921,388.413 		"/>
		<polyline style="fill:none;stroke:#260603;stroke-miterlimit:10;" points="195.755,352.97 132.386,361.293 75.999,387.607 		"/>
	</g>
	<g>
		<g>
			<path style="fill:#915C55;" d="M249.927,279.038c-1.395,0.116-3.217,0.453-4.31,1.387c-1.662,4.924-4.23,9.563-6.87,14.06
				c-2.32,3.946-5.084,7.643-7.883,11.26c-1.253,1.626-2.595,3.191-4.008,4.684c-1.297,2.426-2.204,3.573-2.204,3.573l-0.036,0.329
				l-0.951,7.919l-1.226,10.292l-1.991,52.676l11.385,7.954c0,0,10.843-0.649,10.638,5.457v3.902H226.98
				c0.045,0.275,0.062,0.569,0.053,0.88v3.902H195.11c0,0-13.926-1.689-12.487-7.279c0.995-3.893,1.866-7.705,2.311-9.67
				l-9.572-32.848c-17.428-0.267-31.737-5.99-31.737-5.99l-25.631,42.864l9.545,3.564c0,0,10.851-0.658,10.647,5.457v3.902h-31.932
				c0,0-13.918-1.689-12.487-7.279c1.209-4.737,2.284-9.625,2.577-11.003c-0.044-0.027-0.062-0.044-0.062-0.044l1.564-35.896
				l-2.862-2.337l-5.466,9.625L78.96,390.033c0.116,0.249,0.16,1.129,0.169,1.333c0.027,0.8,0.107,2.373,0.711,2.986
				c0.498,0.507,1.12,0.347,1.786,0.364c1.262,0.027,2.524,0.151,3.759,0.418c2.604,0.569,5.492,1.982,5.395,5.057v3.902
				c-5.226,0-10.46,0.009-15.686,0c-3.022-0.009-6.23-2.337-8.772-3.875c-3.048-1.849-5.928-3.964-8.594-6.328
				c-0.267-0.231-0.533-0.471-0.8-0.711c-0.453-0.427-0.924-0.871-1.173-1.44c-0.195-0.444-0.258-0.933-0.302-1.413
				c-0.604-6.079-0.196-12.256,1.209-18.193c-0.284-0.693-0.436-1.093-0.436-1.093s10.404-68.653,10.407-68.673
				c1.233-8.135,2.171-16.473,8.093-22.752c5.69-6.033,12.35-11.194,19.774-14.909c-0.118-1.108-0.807-2.14-1.786-2.673
				c4.071-0.252,8.211,0.09,12.165,1.103c3.216,0.824,6.353,0.991,9.699,1.451c7.599,1.046,14.958,3.373,22.178,5.892
				c4.177,1.457,9.201,3.33,13.668,2.093c3.603-0.998,6.966-2.045,10.756-2.723c5.335-0.954,10.669-1.909,16.004-2.863l8.505,0.169
				l-2.231-0.613c0,0-4.977-0.338-6.266-3.004c0,0-3.226-0.791-2.648-3.59l0.658-1.102c0,0-3.155,0.16-2.391-3.582l0.222-5.546
				l17.828-9.305c0,0,0.622-0.791,1.556-1.965c3.918-4.902,7.252-11.123,12.743-14.329c-0.539,0.613-0.895,1.386-1.011,2.194
				c5.358-1.413,12.206-4.661,17.729-4.661c0.453,0.089,23.943,9.687,24.947,23.392c0.124,1.671,0.204,3.351,0.258,5.03
				c0.053,1.546-0.382,2.835,0.027,4.337c0.915,3.306,1.902,6.586,2.471,9.972c0.596,3.546,0.711,7.226-0.204,10.7
				C249.092,276.149,249.492,278.016,249.927,279.038z"/>
			<path style="fill:none;stroke:#260603;stroke-miterlimit:10;" d="M131.009,293.26c19.249,16.778,13.266,55.926,13.266,55.926
				l-1.301,2.601l-16.908,29.263"/>
			<path style="fill:none;stroke:#260603;stroke-miterlimit:10;" d="M74.303,292.609c-5.723,22.76,23.931,60.478,23.931,60.478
				l-0.845,17.363"/>
			<path style="fill:none;stroke:#260603;stroke-miterlimit:10;" d="M161.443,293.39c-8.064,30.564,13.916,64.119,13.916,64.119
				l5.723,20.94"/>
			<path style="fill:none;stroke:#260603;stroke-miterlimit:10;" d="M210.866,294.3c0,0,2.861,22.63-6.763,47.602l1.301,42.139"/>
			<path style="fill:none;stroke:#260603;stroke-miterlimit:10;" d="M204.422,341.245c0,0,18.087-20.805,25.89-36.998"/>
			<path style="fill:none;stroke:#260603;stroke-miterlimit:10;" d="M229.096,394.553c3.054-1.685,6.941-1.756,10.054-0.183
				c1.283,0.648,2.468,1.599,3.092,2.894"/>
			<path style="fill:none;stroke:#260603;stroke-miterlimit:10;" d="M210.668,399.477c2.053-0.819,4.195-1.457,6.397-1.658
				c2.201-0.2,4.471,0.054,6.489,0.956c0.63,0.282,1.239,0.629,1.748,1.095c0.696,0.637,1.189,1.492,1.393,2.413"/>
			<path style="fill:none;stroke:#260603;stroke-miterlimit:10;" d="M123.601,399.714c4.316-2.723,12.47-2.491,14.663,2.96"/>
			<path style="fill:none;stroke:#260603;stroke-miterlimit:10;" d="M74.075,396.391c4.895-2.245,12.981-2.659,16.448,2.131"/>
			<path style="fill:#260603;" d="M224.615,314.329l-0.951,7.919c-4.808,7.305-14.095,21.276-14.095,21.276l-5.27,9.11
				l-0.196-10.727L224.615,314.329z"/>
			<path style="fill:#260603;" d="M98.071,352.991l-6.791,4.228c0,0-13.213-26.762-13.886-40.395c0,0,10.289,25.616,19.209,33.443
				L98.071,352.991z"/>
			<path style="fill:#915C55;" d="M77.112,287.907c-4.239-0.654-8.178,2.114-11.511,4.815c-2.793,2.264-5.613,4.678-7.231,7.888
				c-1.139,2.26-1.616,4.793-1.935,7.305c-0.282,2.224-0.448,4.511,0.097,6.686c0.544,2.175,1.905,4.247,3.956,5.152
				c3.17,1.397,6.94-0.38,9.255-2.956c2.315-2.577,3.678-5.857,5.677-8.686"/>
		</g>
		<g>
			<path style="fill:#915C55;" d="M232.735,225.59c0.365-2.768,0.523-5.661-0.451-8.277c-0.974-2.616-3.336-4.889-6.126-4.974
				c-1.678-0.051-3.286,0.67-4.721,1.541c-2.343,1.422-4.45,3.333-5.725,5.758c-0.381,0.724-0.69,1.514-0.68,2.332
				c0.024,1.855,1.61,3.265,3.081,4.396c2.322,1.786,4.686,3.517,7.05,5.248c1.314,0.962,4.292,3.147,5.68,1.253
				C232.196,231.021,232.446,227.789,232.735,225.59z"/>
			<path style="fill:#F9D7B1;" d="M173.036,249.718l-0.227,5.544c-0.765,3.741,2.389,3.581,2.389,3.581l-0.657,1.101
				c-0.572,2.801,2.65,3.59,2.654,3.591c0.609,0.149,0.933,1.67,1.089,2.159c0.313,0.984,0.899,1.884,1.674,2.566
				c0.406-0.51,0.811-1.02,1.216-1.53c0.007,0.388,0.143,0.773,0.38,1.08c1.589-1.62,3.101-0.941,5.016-0.413
				c2.061,0.568,4.122,1.137,6.182,1.705c1.531,0.422,3.395,1.267,4.995,1.304c1.057,0.024,2.272-0.148,2.813-1.042
				c0.565-0.932,0.766-2.543,0.77-3.611c0.01-2.325-1.252-4.467-2.715-6.273c-1.463-1.806-3.178-3.431-4.354-5.436
				c-1.176-2.006-1.745-4.566-0.721-6.653c0.477-0.973,1.263-1.773,1.717-2.757c1.079-2.342-1.605-4.427-2.837-6.189
				c-0.939,1.176-1.563,1.965-1.563,1.965L173.036,249.718z"/>
			<path style="fill:none;stroke:#260603;stroke-miterlimit:10;" d="M175.018,258.896c1.036-0.117,2.077,0.1,3.1,0.302
				c2.717,0.538,5.485,0.984,8.247,0.772c0.597-0.046,1.197-0.124,1.757-0.335c1.571-0.592,2.671-2.169,4.306-2.552
				c0.205-0.048,0.458-0.115,0.503-0.32"/>
			<path style="fill:#F0B250;" d="M201.08,243.327c-0.835,1.741-0.449,3.764,0.818,5.074c0.365,0.386,0.795,0.709,1.299,0.951
				c2.255,1.082,4.948,0.128,6.025-2.117c0.352-0.732,0.485-1.523,0.426-2.277c-0.064-1.014-0.481-1.998-1.196-2.751
				c-0.365-0.41-0.824-0.747-1.347-0.998c-2.007-0.963-4.371-0.307-5.621,1.446l-0.005,0.01
				C201.322,242.87,201.194,243.089,201.08,243.327z"/>
			<path style="fill:#260603;" d="M201.67,244.347c-0.644,1.342-0.078,2.952,1.264,3.597c1.342,0.644,2.952,0.078,3.597-1.264
				c0.644-1.342,0.078-2.952-1.264-3.596S202.314,243.005,201.67,244.347z"/>
			<path style="fill:#260603;" d="M196.597,247.449l5.301,0.952c-1.267-1.31-1.654-3.333-0.818-5.074
				c0.114-0.238,0.243-0.457,0.4-0.662L196.597,247.449z"/>
			<path style="fill:#260603;" d="M208.452,242.208c0.715,0.753,1.132,1.737,1.196,2.751c0.66-0.889,1.704-2.283,1.704-2.283
				L208.452,242.208z"/>
			<path style="fill:#F9D7B1;" d="M203.328,244.282c-0.384,0.8-0.047,1.759,0.753,2.143c0.8,0.384,1.759,0.047,2.143-0.753
				c0.384-0.8,0.047-1.759-0.753-2.143C204.671,243.145,203.712,243.482,203.328,244.282z"/>
			<path style="fill:#F9D7B1;" d="M202.035,245.042c-0.116,0.241-0.014,0.53,0.227,0.646c0.241,0.116,0.53,0.014,0.646-0.227
				c0.116-0.241,0.014-0.53-0.227-0.646C202.439,244.699,202.15,244.801,202.035,245.042z"/>
			<path style="fill:none;stroke:#260603;stroke-miterlimit:10;" d="M213.817,238.333c-2.013-0.942-4.139-1.906-6.356-1.746
				c-2.472,0.179-4.599,1.714-6.734,2.972"/>
			<path style="fill:none;stroke:#260603;stroke-miterlimit:10;" d="M240.952,260.566c0.497,2.491-0.582,5.022-1.886,7.202
				c-1.704,2.851-3.838,5.445-6.307,7.666c-1.298,1.168-2.706,2.244-4.306,2.944c-2.699,1.181-5.789,1.212-8.677,0.63
				c-2.888-0.582-7.115-1.848-9.825-3.002c-2.604-1.109-6.725-3.317-9.181-4.566"/>
			<path style="fill:none;stroke:#260603;stroke-miterlimit:10;" d="M233.342,227.718c-1.808-1.363-3.683-2.758-5.883-3.295
				c-1.099-0.269-2.239-0.311-3.37-0.353c-5.315-0.195-10.86-0.346-15.686,1.89"/>
			<path style="fill:#260603;" d="M177.152,247.786c0.625,0.448,1.315,1.543,0.893,2.313c-0.144,0.262-0.355,0.479-0.589,0.662
				c-0.181,0.142-0.414,0.344-0.627,0.428c-0.426,0.167-0.934-0.094-1.326,0.222c-0.175,0.141-0.312,0.389-0.535,0.37
				c-0.077-0.006-0.146-0.046-0.211-0.089c-0.815-0.54-1.117-1.649-0.912-2.605c0.076-0.357,0.215-0.705,0.442-0.99
				C174.945,247.266,176.29,247.168,177.152,247.786z"/>
			<path style="fill:#915C55;" d="M173.307,252.714l1.815-0.927c0,0-1.671-2.943-0.084-3.037c1.587-0.095,1.905,2.456,1.905,2.456
				l5.535-3.681l-2.862-1.887c0,0-6.771-4.449-7.041,2.359C172.305,254.803,173.307,252.714,173.307,252.714z"/>
			<path style="fill:#260603;" d="M179.427,261.572c-0.385,0.323-0.706,0.715-1.079,1.052c-0.373,0.337-0.819,0.626-1.319,0.674
				c-0.651,0.063-1.289-0.304-1.692-0.819c-0.403-0.515-0.603-1.159-0.731-1.801c-0.053-0.265-0.095-0.544-0.014-0.802
				c0.094-0.303,0.35-0.537,0.64-0.666c0.29-0.129,0.612-0.167,0.929-0.177c1.997-0.065,3.893,0.852,5.879,1.074
				c0.452,0.051,0.901,0.032,1.351,0.051c-0.396,0.345-1.409,0.284-1.927,0.421C180.727,260.772,180.014,261.079,179.427,261.572z"
				/>
			<path style="fill:#915C55;" d="M247.17,240.35c1.352-1.693,2.349-3.706,3.155-5.765c0.728-1.859,1.32-3.836,1.25-5.762
				c-0.107-2.931-1.802-5.369-4.033-6.526c-2.231-1.158-4.922-1.156-7.495-0.5c-1.089,0.278-2.177,0.672-3.184,1.307
				c-1.084,0.683-2.049,1.627-2.931,2.647c-1.847,2.137-3.365,4.647-4.44,7.339c2.046,2.11,3.75,4.621,5.744,6.795
				c1.549,1.689,3.961,4.211,6.342,4.303C243.428,244.257,245.923,241.911,247.17,240.35z"/>
			<path style="fill:#F9D7B1;" d="M245.507,238.551c1.266-1.687,2.304-3.612,2.9-5.668c0.477-1.644,0.662-3.419,0.201-4.93
				c-0.415-1.361-1.333-2.418-2.441-3.058c-1.109-0.64-2.399-0.887-3.701-0.892c-0.728-0.003-1.466,0.068-2.196,0.255
				c-2.705,0.692-5.216,3.083-6.367,6.062c-0.114,0.294-0.21,0.653-0.055,0.88c0.081,0.117,0.213,0.169,0.339,0.217
				c0.643,0.242,1.285,0.485,1.928,0.727c0.137,0.052,0.279,0.107,0.372,0.229c0.243,0.321,0.023,0.895,0.167,1.295
				c0.091,0.253,0.313,0.393,0.519,0.525c0.713,0.456,1.387,0.983,2.013,1.574c0.167,0.157,0.333,0.324,0.429,0.549
				c0.123,0.292,0.113,0.648,0.115,0.989c0.006,1.436,0.261,2.834,0.746,4.089c0.173,0.447,2.213-0.191,2.576-0.416
				C243.998,240.389,244.802,239.49,245.507,238.551z"/>
		</g>
	</g>
	<g>
		<g>
			<path style="fill:#743B35;" d="M438.067,419.965c-0.444-1.298-0.613-2.675-0.658-4.044c-0.08-2.151,0.115-4.302,0.586-6.399
				c0.427-1.866,0.978-4.053-0.284-5.484c-0.587-0.667-1.458-1.004-2.204-1.484c-0.746-0.489-1.44-1.297-1.289-2.168
				c0.062-0.364,0.258-0.675,0.444-0.987c1.591-2.577,3.964-5.012,0.036-5.954c-0.649-0.151-1.466-0.053-2.133-0.08
				c-1.955-0.071-3.902-0.142-5.857-0.222c-5.857-0.222-11.714-0.436-17.57-0.658c-19.472-0.738-38.953-1.475-58.426-2.213
				c-18.156-0.685-36.54-0.583-54.645-2.06c-15.307-1.248-30.226-7.159-45.535-7.785c-14.14-0.579-27.922,7.174-41.83,6.073
				c-7.675-0.607-16.243-3.692-24.009-5.068c-10.206-1.808-20.413-3.617-30.619-5.425c-13.993-2.479-27.986-4.959-41.979-7.438
				c0,0-6.408,1.484-6.408,1.484l-17.656-20.73l-43.7,4.292l9.151,29.902l-12.665,4.826l21.072,53.449l83.888-17.81
				c3.546-0.009,7.101-0.009,10.647-0.009c13.073-0.009,26.156-0.009,39.229-0.018c18.636-0.009,37.263-0.017,55.898-0.026
				l49.643,15.316c7.042,2.172,14.568,2.214,21.633,0.121l0,0c3.129-0.927,3.191-5.336,0.089-6.351l-27.838-9.104
				c7.509-0.003,15.019-0.006,22.527-0.009c20.032-0.009,40.065-0.018,60.097-0.027c14.806-0.009,29.622-0.009,44.428-0.018
				c5.803-0.009,11.669-0.142,17.455,0.009C439.498,422.356,438.538,421.36,438.067,419.965z"/>
			<polygon style="fill:#260603;" points="295.08,423.911 276.529,417.379 329.1,423.856 			"/>
			<path style="fill:#260603;" d="M105.687,370.053c0,0-0.784,22.817-52.205,13.465l-12.665,4.826l7.806,19.377l52.024-22.891
				l12.379-15.715L105.687,370.053z"/>
			<g>
				<path style="fill:#260603;" d="M250.107,423.403c-0.674-1.085-1.032-2.345-1.098-3.575c-0.074-1.236,0.133-2.438,0.483-3.563
					c0.709-2.247,1.974-4.261,3.54-5.917c3.085-3.338,7.385-5.669,11.972-5.852c2.278-0.085,4.587,0.452,6.557,1.57
					c1.974,1.111,3.638,2.691,4.93,4.506c0.648,0.908,1.201,1.88,1.673,2.882c0.47,0.999,0.883,2.015,1.467,2.931
					c1.122,1.856,3.235,3.072,5.439,3.125c-2.201,0.032-4.411-1.113-5.645-2.989c-0.635-0.919-1.091-1.934-1.593-2.904
					c-0.502-0.968-1.075-1.893-1.738-2.751c-1.32-1.716-2.981-3.169-4.882-4.146c-1.899-0.983-4.049-1.393-6.158-1.237
					c-4.237,0.324-8.186,2.658-10.916,5.852c-1.395,1.586-2.443,3.442-2.986,5.413c-0.556,1.957-0.431,4.045,0.613,5.581
					c0.307,0.452,0.19,1.066-0.262,1.373c-0.451,0.307-1.066,0.19-1.373-0.262C250.125,423.43,250.114,423.413,250.107,423.403z"/>
			</g>
			<path style="fill:#260603;" d="M88.031,349.324c0,0-18.339-8.779-43.7,4.292C44.331,353.616,60.524,360.249,88.031,349.324z"/>
		</g>
		<g>
			<g>
				<path style="fill:#95AD64;" d="M274.185,427.372l0.007,0.005c3.762,3.407,3.252,8.706,0.683,13.983
					c-2.539,5.272-7.334,10.416-11.253,12.989c-3.805,2.213-8.506,2.131-12.403,2.005l-0.007,0.002l0.001-0.009
					c0.233-2.74,0.173-5.66,0.523-8.388c0.159-1.194,0.401-2.347,0.805-3.436c0.265-0.601,0.583-1.212,0.924-1.87
					c1.973-3.714,4.993-8.334,8.599-11.757C265.671,427.493,269.934,425.406,274.185,427.372z"/>
				<polygon style="fill:#95AD64;" points="274.185,427.379 274.19,427.371 274.191,427.375 				"/>
				<polygon style="fill:#95AD64;" points="274.187,427.373 274.194,427.374 274.188,427.382 				"/>
				<g>
					<path style="fill:#260603;" d="M252.775,454.583c7.893-7.369,14.115-16.311,20.127-25.259
						c-5.875,9.038-11.955,18.082-19.783,25.622c-0.1,0.096-0.258,0.093-0.354-0.007c-0.096-0.099-0.093-0.258,0.007-0.354
						C252.773,454.586,252.775,454.584,252.775,454.583z"/>
				</g>
				<g>
					<path style="fill:#260603;" d="M268.121,432.136c-2.084,0.954-4.209,1.819-6.378,2.538c2.111-0.876,4.157-1.889,6.153-2.985
						c0.121-0.066,0.273-0.022,0.34,0.099c0.066,0.121,0.022,0.273-0.099,0.34C268.132,432.131,268.126,432.134,268.121,432.136z"/>
				</g>
				<g>
					<path style="fill:#260603;" d="M265.524,436.512c-2.045,0.956-4.152,1.765-6.3,2.421c2.093-0.814,4.124-1.773,6.072-2.866
						c0.12-0.068,0.273-0.025,0.341,0.096c0.068,0.12,0.025,0.273-0.096,0.341C265.535,436.507,265.529,436.509,265.524,436.512z"/>
				</g>
				<g>
					<path style="fill:#260603;" d="M262.21,441.271c-0.949,0.408-1.897,0.735-2.851,1.053l-2.85,0.975l2.758-1.207
						c0.923-0.395,1.841-0.802,2.703-1.259l0.023-0.012c0.122-0.065,0.274-0.018,0.339,0.104c0.065,0.122,0.018,0.274-0.104,0.339
						C262.222,441.265,262.216,441.268,262.21,441.271z"/>
				</g>
				<g>
					<path style="fill:#260603;" d="M259.327,445.961c-1.998,0.904-4.107,1.545-6.256,1.865c2.118-0.484,4.148-1.279,6.033-2.312
						c0.121-0.066,0.273-0.022,0.34,0.099c0.066,0.121,0.022,0.273-0.099,0.34C259.339,445.956,259.332,445.959,259.327,445.961z"/>
				</g>
				<g>
					<path style="fill:#260603;" d="M255.634,450.508c-0.64,0.317-1.273,0.329-1.885,0.431l-1.852,0.257l1.801-0.502
						c0.591-0.175,1.232-0.299,1.678-0.614c0.113-0.081,0.269-0.055,0.35,0.058c0.081,0.113,0.055,0.269-0.058,0.35
						C255.658,450.494,255.645,450.502,255.634,450.508z"/>
				</g>
				<g>
					<path style="fill:#260603;" d="M260.376,449.413c-0.444,1.899-0.703,3.85-0.747,5.816c-0.122-1.963-0.03-3.947,0.256-5.909
						c0.02-0.137,0.147-0.232,0.284-0.212c0.137,0.02,0.232,0.147,0.212,0.284C260.379,449.399,260.377,449.406,260.376,449.413z"/>
				</g>
				<g>
					<path style="fill:#260603;" d="M264.865,443.84l-1.312,6.363l0.819-6.445c0.017-0.137,0.143-0.234,0.28-0.217
						c0.137,0.017,0.234,0.143,0.217,0.28C264.868,443.827,264.867,443.834,264.865,443.84z"/>
				</g>
				<g>
					<path style="fill:#260603;" d="M267.985,439.985c0.455,2.037,0.618,4.124,0.508,6.184c-0.056-2.062-0.387-4.107-0.991-6.055
						c-0.041-0.132,0.033-0.272,0.165-0.313c0.132-0.041,0.272,0.033,0.313,0.165C267.981,439.972,267.983,439.979,267.985,439.985z
						"/>
				</g>
				<g>
					<path style="fill:#260603;" d="M272.027,434.756l1.477,6.826l-1.96-6.697l-0.002-0.007c-0.039-0.133,0.037-0.272,0.17-0.31
						c0.133-0.039,0.272,0.037,0.311,0.17C272.024,434.745,272.026,434.751,272.027,434.756z"/>
				</g>
				<path style="fill:#260603;" d="M253.465,442.654c0.092,0.321,0.207,0.637,0.342,0.936c0.241,0.547,0.558,1.145,0.34,1.735
					c-0.102,0.272-0.308,0.499-0.512,0.715c-0.633,0.641-1.254,1.298-1.899,1.921c0.159-1.194,0.401-2.347,0.805-3.436
					C252.806,443.923,253.124,443.312,253.465,442.654z"/>
			</g>
			<g>
				<path style="fill:#95AD64;" d="M283.49,432.101l0.004-0.001c5.344,0.072,6.454,9.154,5.826,13.692
					c-0.441,2.108-1.953,3.928-3.146,5.608c0,0.002-0.001,0.004-0.001,0.004c-0.002-0.001-0.002-0.001-0.003-0.003
					c-1.117-0.898-2.401-1.819-3.414-2.939c-0.445-0.491-0.837-1.019-1.142-1.599c-0.149-0.337-0.293-0.705-0.432-1.1
					C279.588,441.262,278.78,433.503,283.49,432.101z"/>
				<polygon style="fill:#95AD64;" points="283.492,432.104 283.492,432.099 283.493,432.1 				"/>
				<polygon style="fill:#95AD64;" points="283.491,432.101 283.494,432.099 283.495,432.104 				"/>
				<g>
					<path style="fill:#260603;" d="M285.755,450.213l-2.094-16.897l2.589,16.828c0.021,0.137-0.073,0.264-0.209,0.285
						c-0.136,0.021-0.264-0.073-0.285-0.209C285.756,450.218,285.755,450.215,285.755,450.213z"/>
				</g>
				<g>
					<path style="fill:#260603;" d="M282.876,436.137l-1.672,3.258l1.206-3.438l0.006-0.017c0.046-0.131,0.189-0.2,0.32-0.154
						s0.2,0.189,0.154,0.32C282.886,436.116,282.881,436.128,282.876,436.137z"/>
				</g>
				<g>
					<path style="fill:#260603;" d="M283.424,438.775l-1.605,3.243l1.134-3.412l0.007-0.022c0.044-0.132,0.186-0.203,0.318-0.159
						c0.131,0.044,0.203,0.186,0.159,0.318C283.433,438.753,283.429,438.765,283.424,438.775z"/>
				</g>
				<g>
					<path style="fill:#260603;" d="M283.911,441.814c-0.451,1.026-0.942,1.959-1.41,2.943c0.308-1.027,0.663-2.079,0.931-3.087
						l0.006-0.022c0.036-0.134,0.174-0.214,0.308-0.178c0.134,0.036,0.214,0.173,0.178,0.308
						C283.92,441.789,283.916,441.802,283.911,441.814z"/>
				</g>
				<g>
					<path style="fill:#260603;" d="M284.647,444.647c-0.402,1.116-0.908,2.188-1.511,3.191c0.455-1.079,0.798-2.195,1.03-3.326
						c0.028-0.136,0.16-0.223,0.296-0.195c0.136,0.028,0.223,0.16,0.195,0.296C284.655,444.624,284.651,444.636,284.647,444.647z"/>
				</g>
				<g>
					<path style="fill:#260603;" d="M285.195,447.703c-0.112,0.396-0.328,0.655-0.497,0.942l-0.536,0.853l0.309-0.959
						c0.098-0.32,0.232-0.646,0.229-0.913c-0.002-0.14,0.111-0.255,0.25-0.256c0.14-0.001,0.255,0.111,0.256,0.251
						c0,0.025-0.003,0.048-0.009,0.071L285.195,447.703z"/>
				</g>
				<g>
					<path style="fill:#260603;" d="M286.342,445.341c0.548,0.828,1.212,1.592,1.983,2.252c-0.868-0.525-1.669-1.183-2.375-1.942
						c-0.095-0.101-0.09-0.26,0.012-0.355c0.101-0.095,0.26-0.09,0.355,0.012C286.325,445.318,286.334,445.33,286.342,445.341z"/>
				</g>
				<g>
					<path style="fill:#260603;" d="M285.834,441.675l1.841,2.795l-2.247-2.503c-0.093-0.103-0.084-0.262,0.019-0.355
						c0.103-0.093,0.262-0.084,0.355,0.019c0.008,0.009,0.016,0.019,0.022,0.029L285.834,441.675z"/>
				</g>
				<g>
					<path style="fill:#260603;" d="M285.563,439.077c0.887,0.638,1.685,1.377,2.386,2.187c-0.818-0.692-1.708-1.286-2.646-1.76
						c-0.124-0.063-0.173-0.213-0.111-0.337c0.063-0.124,0.213-0.173,0.337-0.111C285.541,439.062,285.553,439.07,285.563,439.077z"
						/>
				</g>
				<g>
					<path style="fill:#260603;" d="M285.276,435.648l2.92,2.182l-3.191-1.762c-0.121-0.067-0.165-0.219-0.098-0.34
						c0.067-0.121,0.219-0.165,0.34-0.098C285.256,435.635,285.267,435.642,285.276,435.648z"/>
				</g>
				<path style="fill:#260603;" d="M281.182,445.763c0.158,0.084,0.321,0.155,0.488,0.212c0.302,0.106,0.65,0.197,0.812,0.505
					c0.074,0.143,0.094,0.312,0.111,0.477c0.054,0.502,0.108,1.004,0.163,1.506c-0.445-0.491-0.837-1.019-1.142-1.599
					C281.466,446.525,281.322,446.157,281.182,445.763z"/>
			</g>
			<g>
				<path style="fill:#95AD64;" d="M298.338,426.78l-0.005-0.004c-4.83-5.393,3.535-14.828,8.738-18.288
					c1.276-0.727,2.713-1.111,4.176-1.346c0.731-0.117,1.469-0.198,2.197-0.265c0.338-0.009,0.793-0.142,1.231-0.154
					c0.431-0.034,0.966,0.069,1.162,0.382l0.004,0.003l-0.006,0.003c-0.422,0.293-0.269,0.743-0.221,1.144l0.056,0.326l0.018,0.386
					l0.029,0.777c0.031,1.039,0.023,2.087-0.093,3.109c-0.101,0.897-0.286,1.771-0.601,2.6c-0.208,0.453-0.452,0.928-0.725,1.423
					C311.175,422.516,304.089,430.212,298.338,426.78z"/>
				<polygon style="fill:#95AD64;" points="298.339,426.775 298.334,426.78 298.334,426.777 				"/>
				<polygon style="fill:#95AD64;" points="298.336,426.779 298.332,426.778 298.336,426.773 				"/>
				<g>
					<path style="fill:#260603;" d="M314.677,408.124l-15.256,17.388l14.877-17.714c0.089-0.106,0.246-0.12,0.352-0.031
						c0.106,0.089,0.12,0.246,0.031,0.352C314.68,408.121,314.678,408.123,314.677,408.124z"/>
				</g>
				<g>
					<path style="fill:#260603;" d="M303.044,423.845l4.792-1.312l-4.617,1.781l-0.018,0.007c-0.129,0.05-0.274-0.015-0.324-0.144
						c-0.05-0.129,0.014-0.274,0.144-0.324C303.028,423.85,303.036,423.847,303.044,423.845z"/>
				</g>
				<g>
					<path style="fill:#260603;" d="M305.232,420.922l4.706-1.358l-4.521,1.822l-0.022,0.009c-0.128,0.052-0.274-0.01-0.326-0.139
						c-0.052-0.128,0.01-0.274,0.139-0.326C305.216,420.927,305.224,420.924,305.232,420.922z"/>
				</g>
				<g>
					<path style="fill:#260603;" d="M307.887,417.698c1.421-0.482,2.808-0.847,4.214-1.275c-1.332,0.579-2.719,1.123-4.005,1.73
						l-0.021,0.01c-0.125,0.059-0.275,0.005-0.334-0.12c-0.059-0.125-0.005-0.275,0.12-0.334
						C307.87,417.704,307.879,417.701,307.887,417.698z"/>
				</g>
				<g>
					<path style="fill:#260603;" d="M310.108,414.403c1.472-0.613,2.997-1.081,4.547-1.385c-1.509,0.466-2.959,1.087-4.331,1.836
						c-0.121,0.066-0.273,0.022-0.34-0.1c-0.066-0.121-0.022-0.273,0.1-0.34C310.092,414.41,310.1,414.406,310.108,414.403z"/>
				</g>
				<g>
					<path style="fill:#260603;" d="M312.734,411.095c0.47-0.24,0.925-0.269,1.363-0.366l1.329-0.254l-1.26,0.495
						c-0.415,0.172-0.865,0.306-1.163,0.547c-0.108,0.087-0.266,0.071-0.354-0.037c-0.088-0.108-0.071-0.266,0.037-0.354
						C312.699,411.115,312.719,411.103,312.734,411.095z"/>
				</g>
				<g>
					<path style="fill:#260603;" d="M309.35,411.976c0.327-1.324,0.485-2.703,0.447-4.088c0.204,1.371,0.217,2.781,0.045,4.179
						c-0.017,0.137-0.141,0.235-0.279,0.219c-0.137-0.017-0.235-0.141-0.219-0.279C309.346,411.997,309.348,411.985,309.35,411.976z
						"/>
				</g>
				<g>
					<path style="fill:#260603;" d="M306.068,415.8l1.117-4.426l-0.629,4.536c-0.019,0.137-0.146,0.233-0.283,0.214
						c-0.137-0.019-0.233-0.146-0.214-0.283c0.001-0.009,0.003-0.018,0.005-0.027L306.068,415.8z"/>
				</g>
				<g>
					<path style="fill:#260603;" d="M303.662,418.382c-0.179-1.467-0.172-2.942-0.002-4.388c-0.004,1.456,0.158,2.904,0.494,4.3
						c0.032,0.135-0.05,0.27-0.185,0.302c-0.134,0.032-0.27-0.051-0.302-0.185C303.665,418.401,303.664,418.391,303.662,418.382z"/>
				</g>
				<g>
					<path style="fill:#260603;" d="M300.423,421.77l-0.503-4.912l0.997,4.836c0.028,0.135-0.059,0.268-0.195,0.296
						c-0.135,0.028-0.268-0.059-0.296-0.195C300.425,421.787,300.424,421.779,300.423,421.77z"/>
				</g>
				<path style="fill:#260603;" d="M314.298,416.876c-0.057-0.237-0.13-0.468-0.222-0.69c-0.163-0.404-0.382-0.842-0.214-1.283
					c0.079-0.203,0.232-0.375,0.384-0.539l1.379-1.511c-0.101,0.897-0.286,1.771-0.601,2.6
					C314.814,415.906,314.571,416.381,314.298,416.876z"/>
			</g>
		</g>
	</g>
	<g>
		<path style="fill:#95AD64;" d="M148.138,235.142l0.006,0.004c3.258,2.895,2.919,7.164,0.932,11.179
			c-1.973,4.018-5.571,7.707-8.44,9.611c-2.835,1.605-6.555,1.565-9.727,1.702l-0.005,0.002l-0.001-0.007
			c-0.227-2.205-0.637-4.607-0.574-6.866c0.028-0.991,0.148-1.952,0.417-2.859c0.187-0.496,0.413-1.011,0.667-1.55
			c1.458-3.073,3.886-6.711,6.787-9.19C141.106,234.7,144.533,233.366,148.138,235.142z"/>
		<polygon style="fill:#95AD64;" points="148.138,235.148 148.142,235.141 148.143,235.145 		"/>
		<polygon style="fill:#95AD64;" points="148.14,235.143 148.145,235.143 148.141,235.15 		"/>
		<g>
			<path style="fill:#260603;" d="M132.075,256.274c5.257-6.369,10.182-13.003,14.751-19.867c0.115-0.172,0.348-0.219,0.52-0.104
				c0.172,0.115,0.219,0.348,0.104,0.52c-0.002,0.003-0.005,0.007-0.006,0.009C142.655,243.575,137.523,250.067,132.075,256.274z"/>
		</g>
		<g>
			<path style="fill:#260603;" d="M143.291,238.711l-5.264,1.456l4.979-2.15l0.035-0.015c0.191-0.082,0.413,0.006,0.495,0.197
				c0.082,0.191-0.006,0.413-0.197,0.495C143.324,238.701,143.307,238.707,143.291,238.711z"/>
		</g>
		<g>
			<path style="fill:#260603;" d="M141.254,242.027c-1.708,0.59-3.445,1.067-5.196,1.439c1.682-0.613,3.323-1.322,4.903-2.13
				c0.185-0.094,0.411-0.021,0.506,0.163c0.094,0.185,0.021,0.411-0.164,0.506C141.288,242.014,141.27,242.021,141.254,242.027z"/>
		</g>
		<g>
			<path style="fill:#260603;" d="M138.671,245.645c-0.804,0.265-1.577,0.467-2.354,0.667l-2.332,0.612l2.208-0.966
				c0.739-0.318,1.479-0.645,2.157-0.99l0.033-0.017c0.186-0.094,0.413-0.021,0.507,0.165c0.095,0.186,0.021,0.413-0.165,0.507
				C138.707,245.632,138.688,245.64,138.671,245.645z"/>
		</g>
		<g>
			<path style="fill:#260603;" d="M136.521,249.306c-1.653,0.641-3.367,1.082-5.094,1.32c1.676-0.482,3.281-1.156,4.774-1.998
				c0.181-0.102,0.41-0.038,0.512,0.143c0.102,0.181,0.038,0.41-0.143,0.512C136.555,249.291,136.537,249.3,136.521,249.306z"/>
		</g>
		<g>
			<path style="fill:#260603;" d="M133.853,252.924c-0.576,0.265-1.078,0.246-1.573,0.322l-1.499,0.175l1.409-0.539
				c0.462-0.186,0.978-0.337,1.266-0.594c0.157-0.14,0.397-0.126,0.537,0.031c0.14,0.157,0.126,0.397-0.03,0.537
				c-0.029,0.025-0.06,0.046-0.093,0.061L133.853,252.924z"/>
		</g>
		<g>
			<path style="fill:#260603;" d="M137.735,251.938c-0.27,1.502-0.346,3.057-0.214,4.61c-0.379-1.512-0.561-3.09-0.533-4.682
				c0.003-0.208,0.174-0.374,0.382-0.371c0.208,0.003,0.374,0.174,0.371,0.382C137.74,251.896,137.738,251.919,137.735,251.938z"/>
		</g>
		<g>
			<path style="fill:#260603;" d="M141.083,247.676l-0.864,4.995l0.12-5.085c0.005-0.208,0.177-0.373,0.385-0.368
				c0.208,0.005,0.372,0.177,0.368,0.385c0,0.018-0.002,0.036-0.005,0.053L141.083,247.676z"/>
		</g>
		<g>
			<path style="fill:#260603;" d="M143.504,244.712c0.381,1.656,0.546,3.345,0.499,5.011c-0.203-1.655-0.614-3.269-1.215-4.79
				c-0.076-0.193,0.018-0.412,0.212-0.488s0.412,0.018,0.488,0.212C143.494,244.674,143.5,244.695,143.504,244.712z"/>
		</g>
		<g>
			<path style="fill:#260603;" d="M146.71,240.813l1.24,5.598l-1.957-5.38l-0.003-0.008c-0.071-0.195,0.03-0.411,0.225-0.482
				c0.195-0.071,0.411,0.03,0.482,0.225C146.702,240.781,146.707,240.798,146.71,240.813z"/>
		</g>
		<path style="fill:#260603;" d="M131.413,246.358c0.093,0.265,0.205,0.523,0.335,0.772c0.233,0.453,0.533,0.947,0.39,1.431
			c-0.068,0.223-0.224,0.409-0.38,0.586l-1.429,1.619c0.028-0.991,0.148-1.952,0.417-2.859
			C130.933,247.413,131.159,246.898,131.413,246.358z"/>
	</g>
	<g>
		<path style="fill:#95AD64;" d="M430.847,305.798l0.006,0.006c2.865,4.13,1.668,8.499-0.669,12.449
			c-2.375,3.935-5.99,7.61-8.881,9.81c-2.897,1.823-7.004,2.27-10.561,3.14l-0.005,0.004l-0.002-0.008
			c-0.731-2.418-1.632-5.14-1.782-7.846c-0.072-1.189,0-2.37,0.273-3.514c0.204-0.626,0.445-1.295,0.743-1.984
			c1.664-3.941,4.97-8.627,8.945-11.388C422.875,303.675,427.321,302.864,430.847,305.798z"/>
		<polygon style="fill:#95AD64;" points="430.845,305.805 430.852,305.799 430.851,305.803 		"/>
		<polygon style="fill:#95AD64;" points="430.848,305.8 430.854,305.802 430.848,305.808 		"/>
		<g>
			<path style="fill:#260603;" d="M411.774,329.423c4.741-8.201,10.582-15.784,17.329-22.481c0.147-0.146,0.384-0.145,0.53,0.002
				c0.146,0.147,0.145,0.384-0.002,0.53c-0.002,0.002-0.005,0.005-0.007,0.007C422.752,313.952,416.73,321.35,411.774,329.423z"/>
		</g>
		<g>
			<path style="fill:#260603;" d="M424.56,308.814l-6.357,1.264l6.169-1.99c0.198-0.064,0.409,0.045,0.473,0.242
				c0.064,0.197-0.045,0.409-0.242,0.473C424.588,308.808,424.574,308.811,424.56,308.814z"/>
		</g>
		<g>
			<path style="fill:#260603;" d="M421.728,312.424l-6.184,1.586l5.945-2.297l0.01-0.004c0.194-0.075,0.411,0.021,0.486,0.215
				c0.075,0.194-0.022,0.411-0.215,0.486C421.757,312.415,421.741,312.42,421.728,312.424z"/>
		</g>
		<g>
			<path style="fill:#260603;" d="M418.469,316.517l-5.456,1.747l5.152-2.433l0.029-0.014c0.188-0.089,0.412-0.008,0.501,0.18
				c0.089,0.188,0.008,0.413-0.18,0.501C418.5,316.505,418.483,316.512,418.469,316.517z"/>
		</g>
		<g>
			<path style="fill:#260603;" d="M416.009,320.826c-1.883,0.863-3.82,1.59-5.791,2.169c1.886-0.814,3.703-1.764,5.438-2.831
				c0.177-0.109,0.408-0.053,0.517,0.123c0.109,0.177,0.054,0.408-0.123,0.517C416.038,320.812,416.023,320.82,416.009,320.826z"/>
		</g>
		<g>
			<path style="fill:#260603;" d="M413.234,325.271c-0.597,0.366-1.179,0.45-1.732,0.632l-1.69,0.496l1.547-0.843
				c0.509-0.291,1.075-0.533,1.416-0.879c0.147-0.149,0.386-0.151,0.535-0.004s0.15,0.386,0.004,0.535
				c-0.021,0.022-0.045,0.041-0.07,0.056L413.234,325.271z"/>
		</g>
		<g>
			<path style="fill:#260603;" d="M417.54,323.799c-0.158,1.699-0.025,3.446,0.399,5.142c-0.661-1.618-1.058-3.368-1.149-5.157
				c-0.011-0.207,0.148-0.385,0.355-0.396c0.207-0.011,0.385,0.148,0.396,0.355C417.542,323.762,417.542,323.782,417.54,323.799z"/>
		</g>
		<g>
			<path style="fill:#260603;" d="M421.169,318.927c-0.347,1.843-0.597,3.71-0.708,5.596c-0.139-1.884-0.139-3.786-0.037-5.686
				c0.011-0.207,0.188-0.366,0.395-0.355c0.207,0.011,0.366,0.188,0.355,0.395C421.174,318.893,421.172,318.911,421.169,318.927z"/>
		</g>
		<g>
			<path style="fill:#260603;" d="M424.021,315.75c0.335,1.858,0.504,3.735,0.504,5.6c-0.249-1.849-0.664-3.664-1.231-5.418
				c-0.064-0.198,0.044-0.409,0.242-0.473c0.198-0.064,0.409,0.044,0.473,0.242C424.014,315.716,424.018,315.734,424.021,315.75z"/>
		</g>
		<g>
			<path style="fill:#260603;" d="M428.055,311.819l0.887,6.35l-1.627-6.225c-0.052-0.201,0.068-0.406,0.269-0.459
				c0.201-0.053,0.406,0.068,0.459,0.269c0.004,0.014,0.006,0.027,0.008,0.041L428.055,311.819z"/>
		</g>
		<path style="fill:#260603;" d="M409.967,317.856c0.113,0.311,0.249,0.609,0.412,0.896c0.29,0.521,0.664,1.078,0.521,1.676
			c-0.068,0.276-0.242,0.519-0.417,0.752l-1.531,2.174c-0.072-1.189,0-2.37,0.273-3.514
			C409.429,319.214,409.67,318.545,409.967,317.856z"/>
	</g>
	<g>
		<path style="fill:#95AD64;" d="M434.733,90.302l0.01,0.005c10.167,7.265,0.962,23.952-5.907,30.71
			c-3.478,2.939-8.651,3.964-13.038,5.182c-0.002,0.003-0.006,0.005-0.006,0.005c-0.002-0.005-0.002-0.005-0.003-0.01
			c-1.022-2.997-2.337-6.255-2.883-9.484c-0.242-1.417-0.334-2.825-0.195-4.203c0.136-0.764,0.319-1.572,0.543-2.419
			C415.812,100.422,423.944,86.352,434.733,90.302z"/>
		<polygon style="fill:#95AD64;" points="434.734,90.311 434.739,90.301 434.74,90.306 		"/>
		<path style="fill:#95AD64;" d="M434.736,90.304c0.003,0.002,0.003,0.002,0.008,0l-0.005,0.01
			C434.737,90.309,434.737,90.309,434.736,90.304z"/>
		<g>
			<path style="fill:#260603;" d="M416.994,123.925l16.22-31.534c0.095-0.184,0.321-0.257,0.505-0.162
				c0.184,0.095,0.257,0.321,0.162,0.505c-0.001,0.002-0.003,0.005-0.004,0.007L416.994,123.925z"/>
		</g>
		<g>
			<path style="fill:#260603;" d="M428.37,96.1l-7.129,3.358l6.752-4.006l0.025-0.015c0.178-0.106,0.409-0.047,0.515,0.131
				c0.106,0.179,0.047,0.409-0.131,0.515C428.392,96.089,428.381,96.094,428.37,96.1z"/>
		</g>
		<g>
			<path style="fill:#260603;" d="M426.128,101.249c-2.274,1.256-4.604,2.398-6.978,3.422c2.264-1.248,4.463-2.604,6.584-4.06
				c0.171-0.117,0.405-0.074,0.522,0.097c0.117,0.171,0.074,0.405-0.097,0.522C426.149,101.237,426.138,101.244,426.128,101.249z"/>
		</g>
		<g>
			<path style="fill:#260603;" d="M423.264,106.992c-1.046,0.583-2.078,1.1-3.115,1.615l-3.109,1.559l2.923-1.884
				c0.978-0.624,1.956-1.257,2.872-1.905l0.029-0.02c0.17-0.12,0.404-0.08,0.524,0.09c0.12,0.17,0.08,0.404-0.09,0.524
				C423.287,106.978,423.275,106.985,423.264,106.992z"/>
		</g>
		<g>
			<path style="fill:#260603;" d="M421.139,112.721c-2.126,1.386-4.384,2.543-6.726,3.452c2.239-1.137,4.349-2.502,6.286-4.06
				c0.162-0.13,0.398-0.104,0.528,0.057c0.13,0.162,0.104,0.398-0.057,0.528C421.16,112.706,421.15,112.714,421.139,112.721z"/>
		</g>
		<g>
			<path style="fill:#260603;" d="M418.365,118.578c-0.669,0.522-1.376,0.688-2.036,0.968l-2.018,0.78l1.853-1.117
				c0.606-0.382,1.288-0.713,1.685-1.175c0.135-0.158,0.374-0.176,0.532-0.041c0.158,0.135,0.176,0.373,0.041,0.532
				C418.405,118.544,418.384,118.563,418.365,118.578z"/>
		</g>
		<g>
			<path style="fill:#260603;" d="M423.485,116.24c0.088,2.177,0.488,4.36,1.191,6.459c-0.936-2.007-1.594-4.163-1.938-6.386
				c-0.032-0.205,0.108-0.397,0.313-0.429c0.205-0.032,0.397,0.108,0.429,0.313C423.483,116.211,423.485,116.226,423.485,116.24z"/>
		</g>
		<g>
			<path style="fill:#260603;" d="M427.086,109.418l0.242,7.187l-0.991-7.148c-0.029-0.206,0.115-0.396,0.321-0.424
				c0.206-0.029,0.396,0.115,0.424,0.321c0.002,0.013,0.003,0.026,0.003,0.038L427.086,109.418z"/>
		</g>
		<g>
			<path style="fill:#260603;" d="M429.826,104.771c0.944,2.203,1.625,4.502,2.029,6.834c-0.648-2.277-1.56-4.463-2.702-6.503
				c-0.101-0.181-0.037-0.41,0.144-0.511c0.181-0.102,0.41-0.037,0.511,0.144C429.815,104.747,429.821,104.759,429.826,104.771z"/>
		</g>
		<g>
			<path style="fill:#260603;" d="M433.551,98.641l3.063,7.543l-3.744-7.229c-0.095-0.184-0.023-0.411,0.161-0.506
				c0.184-0.095,0.411-0.023,0.506,0.161C433.542,98.62,433.547,98.631,433.551,98.641z"/>
		</g>
		<path style="fill:#260603;" d="M413.254,110.088c0.199,0.353,0.423,0.69,0.673,1.008c0.448,0.581,1.002,1.198,0.928,1.93
			c-0.036,0.338-0.208,0.649-0.382,0.946c-0.522,0.913-1.045,1.826-1.567,2.738c-0.242-1.417-0.334-2.825-0.195-4.203
			C412.847,111.743,413.03,110.935,413.254,110.088z"/>
	</g>
	<g>
		<path style="fill:#95AD64;" d="M242.646,109.354l0.008,0.009c3.975,6.021,1.577,12.736-3.408,18.297
			c-4.959,5.577-12.417,9.869-17.883,11.593c-5.274,1.268-11.182-0.522-16.282-1.799l-0.009,0.001
			c0.001-0.006,0.001-0.006,0.003-0.012c0.677-3.609,1.145-7.612,2.28-11.167c0.499-1.559,1.127-3.028,1.964-4.341
			c0.52-0.7,1.113-1.412,1.758-2.151c3.697-4.204,9.152-8.874,14.839-11.531C231.606,105.619,237.635,104.971,242.646,109.354z"/>
		<polygon style="fill:#95AD64;" points="242.643,109.363 242.652,109.355 242.652,109.361 		"/>
		<path style="fill:#95AD64;" d="M242.648,109.356c0,0,0.003,0.003,0.009,0.003l-0.01,0.008
			C242.647,109.362,242.647,109.362,242.648,109.356z"/>
		<g>
			<path style="fill:#260603;" d="M207.573,135.836c11.377-7.588,22.269-15.889,32.59-24.835c0.157-0.136,0.393-0.119,0.529,0.038
				c0.136,0.157,0.119,0.393-0.038,0.529c-0.001,0.001-0.004,0.003-0.005,0.005C230.142,120.349,219.087,128.458,207.573,135.836z"
				/>
		</g>
		<g>
			<path style="fill:#260603;" d="M233.329,112.714c-2.997,0.239-6.002,0.326-8.994,0.236c2.99-0.161,5.962-0.497,8.904-0.981
				c0.204-0.034,0.398,0.105,0.431,0.309c0.034,0.205-0.105,0.398-0.309,0.431C233.35,112.711,233.339,112.713,233.329,112.714z"/>
		</g>
		<g>
			<path style="fill:#260603;" d="M228.625,117.104c-2.96,0.264-5.927,0.325-8.879,0.208c2.951-0.133,5.888-0.444,8.781-0.951
				c0.204-0.036,0.399,0.101,0.435,0.305c0.036,0.204-0.101,0.399-0.305,0.435C228.646,117.102,228.635,117.103,228.625,117.104z"/>
		</g>
		<g>
			<path style="fill:#260603;" d="M222.891,121.717c-1.364,0.096-2.686,0.109-4.012,0.113l-3.977,0.036l3.954-0.41l1.975-0.205
				c0.657-0.072,1.291-0.185,1.933-0.273l0.048-0.007c0.205-0.028,0.395,0.115,0.423,0.321c0.028,0.205-0.115,0.395-0.321,0.423
				C222.908,121.716,222.899,121.716,222.891,121.717z"/>
		</g>
		<g>
			<path style="fill:#260603;" d="M217.817,126.57c-2.887,0.344-5.8,0.339-8.657-0.005c2.876,0.094,5.748-0.155,8.536-0.736
				c0.203-0.042,0.402,0.088,0.444,0.291c0.042,0.203-0.088,0.402-0.291,0.444C217.839,126.567,217.827,126.569,217.817,126.57z"/>
		</g>
		<g>
			<path style="fill:#260603;" d="M211.889,131.104c-0.946,0.179-1.755-0.033-2.576-0.106l-2.466-0.298l2.483-0.077
				c0.82-0.042,1.689,0.01,2.355-0.241c0.194-0.074,0.412,0.023,0.486,0.217c0.074,0.194-0.023,0.412-0.217,0.486
				C211.933,131.093,211.909,131.1,211.889,131.104z"/>
		</g>
		<g>
			<path style="fill:#260603;" d="M218.357,131.467c-1.053,2.32-1.815,4.791-2.248,7.334c0.185-2.574,0.706-5.138,1.55-7.61
				c0.067-0.196,0.28-0.301,0.476-0.234c0.196,0.067,0.301,0.28,0.234,0.476C218.367,131.444,218.362,131.456,218.357,131.467z"/>
		</g>
		<g>
			<path style="fill:#260603;" d="M225.636,126.186l-3.428,7.671l2.736-7.96c0.068-0.196,0.281-0.301,0.477-0.233
				c0.196,0.068,0.301,0.281,0.233,0.477c-0.004,0.01-0.008,0.021-0.012,0.031L225.636,126.186z"/>
		</g>
		<g>
			<path style="fill:#260603;" d="M230.81,122.638c-0.048,2.793-0.461,5.562-1.213,8.218c0.508-2.714,0.663-5.477,0.463-8.198
				c-0.015-0.207,0.14-0.387,0.347-0.402c0.207-0.015,0.387,0.14,0.402,0.347C230.81,122.615,230.81,122.627,230.81,122.638z"/>
		</g>
		<g>
			<path style="fill:#260603;" d="M237.657,117.815l-0.253,9.491l-0.497-9.47l-0.001-0.011c-0.011-0.207,0.148-0.384,0.355-0.395
				c0.207-0.011,0.384,0.148,0.395,0.355C237.657,117.795,237.657,117.806,237.657,117.815z"/>
		</g>
		<path style="fill:#260603;" d="M211.076,119.785c0.029,0.464,0.09,0.925,0.184,1.38c0.165,0.827,0.418,1.749-0.029,2.451
			c-0.209,0.323-0.542,0.546-0.87,0.756l-3.007,1.906c0.499-1.559,1.127-3.028,1.964-4.341
			C209.838,121.236,210.431,120.524,211.076,119.785z"/>
	</g>
	<g>
		<path style="fill:#95AD64;" d="M146.06,387.402l0.008,0.009c3.975,6.021,1.578,12.736-3.408,18.297
			c-4.959,5.577-12.416,9.869-17.883,11.593c-5.274,1.268-11.182-0.522-16.282-1.798l-0.009,0.001
			c0.001-0.006,0.001-0.006,0.002-0.011c0.677-3.609,1.145-7.612,2.28-11.167c0.499-1.559,1.127-3.028,1.964-4.341
			c0.52-0.7,1.113-1.412,1.758-2.151c3.697-4.204,9.152-8.874,14.839-11.531C135.021,383.668,141.05,383.019,146.06,387.402z"/>
		<polygon style="fill:#95AD64;" points="146.057,387.412 146.067,387.404 146.066,387.409 		"/>
		<path style="fill:#95AD64;" d="M146.062,387.405c0,0,0.003,0.003,0.008,0.003l-0.009,0.008
			C146.062,387.411,146.062,387.411,146.062,387.405z"/>
		<g>
			<path style="fill:#260603;" d="M110.988,413.885c11.377-7.588,22.269-15.889,32.591-24.835c0.156-0.136,0.393-0.119,0.529,0.038
				c0.136,0.156,0.119,0.393-0.038,0.529c-0.001,0.001-0.004,0.004-0.005,0.004C133.557,398.397,122.502,406.507,110.988,413.885z"
				/>
		</g>
		<g>
			<path style="fill:#260603;" d="M136.743,390.762c-2.997,0.239-6.002,0.326-8.994,0.236c2.99-0.161,5.962-0.497,8.904-0.981
				c0.205-0.033,0.398,0.105,0.431,0.31c0.034,0.205-0.105,0.398-0.31,0.431C136.764,390.76,136.753,390.762,136.743,390.762z"/>
		</g>
		<g>
			<path style="fill:#260603;" d="M132.04,395.153c-2.96,0.264-5.927,0.325-8.879,0.208c2.951-0.133,5.888-0.444,8.781-0.952
				c0.204-0.036,0.399,0.101,0.435,0.305c0.036,0.204-0.101,0.399-0.305,0.435C132.061,395.151,132.05,395.152,132.04,395.153z"/>
		</g>
		<g>
			<path style="fill:#260603;" d="M126.305,399.766c-1.365,0.096-2.686,0.108-4.012,0.113l-3.977,0.036l3.954-0.41l1.975-0.205
				c0.657-0.072,1.292-0.185,1.933-0.273l0.049-0.007c0.205-0.028,0.395,0.115,0.423,0.32c0.028,0.205-0.115,0.395-0.321,0.423
				C126.322,399.764,126.313,399.765,126.305,399.766z"/>
		</g>
		<g>
			<path style="fill:#260603;" d="M121.231,404.619c-2.887,0.343-5.8,0.339-8.657-0.005c2.876,0.094,5.748-0.155,8.536-0.736
				c0.203-0.042,0.402,0.088,0.444,0.291c0.042,0.203-0.088,0.402-0.291,0.444C121.253,404.616,121.242,404.617,121.231,404.619z"/>
		</g>
		<g>
			<path style="fill:#260603;" d="M115.303,409.153c-0.946,0.179-1.755-0.033-2.576-0.106l-2.466-0.298l2.482-0.077
				c0.82-0.042,1.689,0.01,2.355-0.241c0.194-0.074,0.412,0.023,0.486,0.217c0.074,0.194-0.023,0.412-0.217,0.486
				C115.348,409.142,115.324,409.149,115.303,409.153z"/>
		</g>
		<g>
			<path style="fill:#260603;" d="M121.772,409.516c-1.053,2.32-1.815,4.791-2.248,7.334c0.185-2.574,0.706-5.139,1.55-7.611
				c0.067-0.196,0.28-0.301,0.476-0.234c0.196,0.067,0.301,0.28,0.234,0.476C121.781,409.493,121.776,409.505,121.772,409.516z"/>
		</g>
		<g>
			<path style="fill:#260603;" d="M129.051,404.235l-3.428,7.671l2.736-7.96c0.067-0.196,0.281-0.301,0.477-0.233
				c0.196,0.067,0.301,0.281,0.233,0.477c-0.004,0.01-0.008,0.021-0.012,0.031L129.051,404.235z"/>
		</g>
		<g>
			<path style="fill:#260603;" d="M134.225,400.687c-0.048,2.793-0.461,5.562-1.213,8.218c0.508-2.713,0.663-5.477,0.463-8.197
				c-0.015-0.207,0.14-0.387,0.347-0.402s0.387,0.14,0.402,0.347C134.225,400.664,134.225,400.676,134.225,400.687z"/>
		</g>
		<g>
			<path style="fill:#260603;" d="M141.071,395.864l-0.252,9.491l-0.497-9.47l-0.001-0.011c-0.011-0.207,0.148-0.384,0.355-0.395
				c0.207-0.011,0.384,0.148,0.395,0.355C141.072,395.844,141.072,395.854,141.071,395.864z"/>
		</g>
		<path style="fill:#260603;" d="M114.49,397.834c0.029,0.464,0.09,0.925,0.184,1.38c0.165,0.827,0.418,1.749-0.029,2.451
			c-0.209,0.323-0.542,0.546-0.87,0.755l-3.007,1.906c0.499-1.559,1.127-3.028,1.964-4.341
			C113.252,399.285,113.846,398.573,114.49,397.834z"/>
	</g>
	<g>
		<path style="fill:#95AD64;" d="M117.797,181.876l0.003,0.005c1.289,3.142-0.528,6.087-3.56,8.122
			c-3.012,2.056-7.123,3.094-9.902,3.111c-2.628-0.15-5.043-1.842-7.102-3.215l-0.004-0.001l0.003-0.005
			c0.872-1.501,1.68-3.205,2.676-4.624c0.438-0.621,0.913-1.185,1.454-1.65c0.32-0.24,0.674-0.47,1.051-0.711
			c2.163-1.358,5.081-2.737,7.882-3.287C113.097,179.091,115.877,179.385,117.797,181.876z"/>
		<polygon style="fill:#95AD64;" points="117.795,181.88 117.8,181.877 117.799,181.88 		"/>
		<polygon style="fill:#95AD64;" points="117.798,181.877 117.802,181.879 117.796,181.882 		"/>
		<g>
			<path style="fill:#260603;" d="M98.598,189.567c6.225-1.693,12.221-4.169,17.802-7.341c0.18-0.102,0.409-0.039,0.511,0.141
				c0.102,0.18,0.039,0.409-0.141,0.511c-0.004,0.002-0.009,0.005-0.013,0.007C111.002,185.868,104.884,188.116,98.598,189.567z"/>
		</g>
		<g>
			<path style="fill:#260603;" d="M113.164,182.683c-1.385-0.282-2.748-0.649-4.066-1.118c1.38,0.227,2.767,0.343,4.15,0.373
				c0.208,0.004,0.373,0.177,0.368,0.385c-0.005,0.208-0.177,0.373-0.385,0.368C113.209,182.69,113.185,182.687,113.164,182.683z"/>
		</g>
		<g>
			<path style="fill:#260603;" d="M110.547,184.162c-1.373-0.289-2.707-0.696-3.995-1.193c1.357,0.256,2.725,0.412,4.084,0.448
				c0.208,0.005,0.372,0.178,0.367,0.386c-0.005,0.208-0.178,0.372-0.386,0.367C110.594,184.169,110.569,184.166,110.547,184.162z"
				/>
		</g>
		<g>
			<path style="fill:#260603;" d="M107.41,185.564c-0.646-0.164-1.23-0.368-1.816-0.576l-1.76-0.611l1.844,0.246
				c0.613,0.087,1.231,0.166,1.805,0.195l0.039,0.002c0.209,0.01,0.369,0.188,0.359,0.397c-0.01,0.209-0.188,0.369-0.397,0.359
				C107.459,185.574,107.433,185.569,107.41,185.564z"/>
		</g>
		<g>
			<path style="fill:#260603;" d="M104.492,187.092c-1.349-0.304-2.639-0.789-3.828-1.426c1.286,0.407,2.612,0.635,3.926,0.682
				c0.208,0.008,0.37,0.182,0.363,0.39c-0.007,0.208-0.182,0.37-0.39,0.363C104.54,187.1,104.514,187.097,104.492,187.092z"/>
		</g>
		<g>
			<path style="fill:#260603;" d="M101.224,188.297c-0.519-0.098-0.817-0.35-1.161-0.535l-1.014-0.597l1.149,0.247
				c0.379,0.077,0.788,0.194,1.05,0.135c0.208-0.047,0.415,0.085,0.461,0.293c0.047,0.208-0.085,0.415-0.293,0.461
				c-0.052,0.012-0.104,0.012-0.154,0.003L101.224,188.297z"/>
		</g>
		<g>
			<path style="fill:#260603;" d="M104.244,189.305c-0.848,0.852-1.608,1.813-2.25,2.864c0.416-1.158,0.976-2.281,1.666-3.335
				c0.113-0.175,0.347-0.225,0.521-0.111c0.175,0.113,0.225,0.347,0.111,0.521C104.28,189.266,104.261,189.288,104.244,189.305z"/>
		</g>
		<g>
			<path style="fill:#260603;" d="M108.271,187.865l-2.76,2.919l2.169-3.381c0.112-0.175,0.345-0.226,0.52-0.114
				c0.175,0.112,0.226,0.345,0.114,0.52C108.302,187.829,108.286,187.849,108.271,187.865z"/>
		</g>
		<g>
			<path style="fill:#260603;" d="M111.119,186.795c-0.428,1.284-1.037,2.487-1.788,3.569c0.534-1.205,0.89-2.469,1.058-3.74
				c0.027-0.206,0.217-0.351,0.423-0.324c0.206,0.027,0.351,0.217,0.324,0.423C111.132,186.747,111.126,186.774,111.119,186.795z"/>
		</g>
		<g>
			<path style="fill:#260603;" d="M114.828,185.331l-1.409,4.308l0.674-4.461l0.003-0.021c0.031-0.206,0.223-0.348,0.429-0.316
				c0.206,0.031,0.347,0.223,0.316,0.429C114.84,185.29,114.834,185.312,114.828,185.331z"/>
		</g>
		<path style="fill:#260603;" d="M102.415,182.908c-0.047,0.212-0.079,0.428-0.098,0.645c-0.035,0.393-0.046,0.842-0.337,1.094
			c-0.135,0.115-0.312,0.167-0.485,0.214l-1.585,0.408c0.438-0.621,0.913-1.185,1.454-1.65
			C101.684,183.379,102.038,183.149,102.415,182.908z"/>
	</g>
	<g>
		<g>
			<path style="fill:#915C55;" d="M431.276,393.379v4.728h-33.203c0,0-14.469-2.053-12.976-8.825
				c0.364-1.662,0.587-2.897,0.72-3.813l-29.346-32.919l-7.785-13.553l-0.693-1.209l-2.915,13.198l-0.569,2.595l-0.675,25.951
				l10.825,7.234c0,0,11.278-0.791,11.065,6.612v4.728h-33.195c0,0-14.477-2.053-12.984-8.825
				c1.493-6.772,3.146-13.153,3.146-13.153l-1.475-32.19l-0.098-2.177l-0.018-0.409c-5.723,0.525-9.367-1.564-9.367-1.564
				l-12.745,40.846c-0.231,0.036,8.328,6.132,8.328,6.132s11.278-0.791,11.065,6.612v4.728h-33.195c0,0-14.469-2.053-12.984-8.825
				c1.493-6.772,3.333-13.66,3.333-13.66l-0.48-35.567L275,340.126l-6.435,8.55l-12.496,16.611l-44.65,15.286l9.278,6.194
				c0,0,11.278-0.791,11.065,6.612v4.728h-33.194c0,0-14.478-2.053-12.985-8.825c1.351-6.159,9.252-15.615,10.665-17.277
				c0-0.32,32.768-39.753,32.768-39.753s5.199-12.745,12.22-38.5c2.275-8.354,6.239-16.299,12.274-22.583
				c4.71-4.906,12.016-10.647,18.708-12.247c-0.427-0.409-1.084-0.569-1.653-0.391c3.982-2.871,9.652-2.275,14.344-2.409
				c4.595-0.133,9.207,0.436,13.731,1.191c5.724,0.951,11.438,2.24,16.993,3.919l37.789-8.319l0.986-0.213
				c-0.009-0.009-0.009-0.009-0.018-0.018c0.995-0.48,2.515-1.635,3.004-2.631c1.573-3.226,4.07-5.937,6.834-8.239
				c2.631-2.186,5.528-4.026,8.372-5.937c1.298-0.862,1.804-2.124,2.862-3.271c1.138-1.227,2.293-2.444,3.484-3.626
				c9.714-9.723,33.763-1.653,34.172-1.422c0.418,0.231,11.189,15.988,11.456,19.89c0.178,2.711,0,8.674-0.125,12.069
				c-0.062,1.502-0.107,2.506-0.107,2.506l7.412,18.69l-3.448,4.346c-1.866,3.333-4.15,1.155-4.15,1.155l-0.187,1.12
				c-1.404,2.497-4.39,1.129-4.39,1.129c-2.711,1.173-6.701-1.822-6.701-1.822l-12.993-6.159c-0.898-0.427-1.786-0.898-2.702-1.28
				c-0.818-0.338-0.96-0.053-1.786,0.213c-0.204,0.071-0.418,0.124-0.64,0.169c-4.364,2.053-7.119,5.786-8.834,9.412
				c-0.444,0.933-0.827,1.866-1.138,2.755c3.964,18.299,2.64,38.678,2.64,38.678l19.25,47.076l-0.204,0.089l13.74,9.172
				C420.212,386.767,431.49,385.976,431.276,393.379z"/>
			<path style="fill:none;stroke:#260603;stroke-miterlimit:10;" d="M353.61,347.858c0,0-13.849-20.096-18.726-51.505"/>
			<path style="fill:none;stroke:#260603;stroke-miterlimit:10;" d="M346.881,336.736c-29.003,8.324-34.404,3.284-34.404,3.284"/>
			<path style="fill:none;stroke:#260603;stroke-miterlimit:10;" d="M303.801,365.545c0,0,24.893-68.064,9.051-80.305"/>
			<path style="fill:none;stroke:#260603;stroke-miterlimit:10;" d="M275.054,340.055c0,0-26.111-30.152-18.91-51.575"/>
			<path style="fill:#260603;" d="M275.09,339.957l-0.089,0.169l-6.434,8.55c-7.936-16.388-12.762-43.833-13.064-45.601
				C259.537,321.48,275.09,339.957,275.09,339.957z"/>
			<path style="fill:#260603;" d="M396.598,279.045c-5.564,1.733-8.701,5.793-10.674,9.952c-3.262-6.248-9.945-17.117-10.203-17.544
				C382.583,276.261,396.598,279.045,396.598,279.045z"/>
			<path style="fill:none;stroke:#260603;stroke-miterlimit:10;" d="M415.516,389.543c4.189-4.332,14.844-3.549,15.745,3.379"/>
			<path style="fill:none;stroke:#260603;stroke-miterlimit:10;" d="M350.226,389.543c4.189-4.332,14.844-3.549,15.745,3.379"/>
			<path style="fill:none;stroke:#260603;stroke-miterlimit:10;" d="M302.754,389.543c4.189-4.332,14.844-3.549,15.745,3.379"/>
			<path style="fill:none;stroke:#260603;stroke-miterlimit:10;" d="M216.134,389.543c4.189-4.332,14.844-3.549,15.745,3.379"/>
			<path style="fill:#260603;" d="M348.731,338.686l-0.044,0.311l-0.693-1.209l-2.915,13.198c-0.871-0.933-1.991-1.582-3.12-2.168
				c-6.354-3.333-13.571-5.021-20.743-4.879l-0.098-2.177c7.43-0.978,25.667-5.51,25.667-5.51L348.731,338.686z"/>
		</g>
		<g>
			<path style="fill:#915C55;" d="M402.321,223.449c1.532-2.333,3.302-4.628,5.748-5.972s5.719-1.522,7.888,0.236
				c1.304,1.058,2.05,2.653,2.568,4.25c0.845,2.607,1.192,5.43,0.573,8.1c-0.185,0.797-0.467,1.597-1.009,2.21
				c-1.23,1.389-3.352,1.42-5.205,1.316c-2.925-0.164-5.845-0.398-8.766-0.632c-1.624-0.13-5.305-0.42-5.119-2.762
				C399.182,227.913,401.104,225.302,402.321,223.449z"/>
			<path style="fill:#F9D7B1;" d="M431.76,280.715l-3.45,4.346c-1.864,3.332-4.148,1.15-4.148,1.15l-0.194,1.121
				c-1.396,2.495-5.177,1.499-5.181,1.497c-0.558-0.285-0.999,0.285-1.437,0.554c-0.88,0.54-1.911,0.839-2.943,0.849
				c0.026-0.651,0.052-1.302,0.078-1.953c-0.259,0.289-0.613,0.492-0.993,0.57c-0.145-2.265-1.733-2.738-3.528-3.59
				c-1.931-0.916-3.863-1.832-5.795-2.748c-1.435-0.68-3.399-1.258-4.634-2.275c-0.816-0.672-1.623-1.596-1.449-2.627
				c0.181-1.075,1.081-2.425,1.776-3.237c1.511-1.767,3.866-2.564,6.154-2.976s4.647-0.522,6.847-1.272
				c2.201-0.75,4.304-2.317,4.893-4.566c0.274-1.049,0.201-2.167,0.501-3.209c0.713-2.478,4.107-2.303,6.191-2.833
				c-0.057,1.504-0.1,2.509-0.1,2.509L431.76,280.715z"/>
			<path style="fill:none;stroke:#260603;stroke-miterlimit:10;" d="M424.265,286.37c-0.708-0.765-1.638-1.281-2.544-1.796
				c-2.409-1.367-4.796-2.838-6.748-4.803c-0.422-0.424-0.826-0.876-1.112-1.402c-0.803-1.475-0.605-3.387-1.593-4.745
				c-0.124-0.17-0.272-0.386-0.172-0.571"/>
			<path style="fill:#F0B250;" d="M414.702,257.557c-0.505,1.864-2.119,3.143-3.935,3.307c-0.528,0.054-1.065,0.018-1.605-0.128
				c-2.414-0.654-3.83-3.136-3.179-5.539c0.212-0.784,0.627-1.47,1.165-2.002c0.71-0.726,1.669-1.199,2.702-1.301
				c0.544-0.071,1.111-0.027,1.672,0.125c2.149,0.582,3.51,2.623,3.312,4.766l-0.003,0.01
				C414.817,257.053,414.771,257.303,414.702,257.557z"/>
			<path style="fill:#260603;" d="M413.59,257.944c-0.389,1.437-1.869,2.286-3.306,1.897c-1.437-0.389-2.287-1.869-1.898-3.306
				c0.389-1.437,1.869-2.286,3.306-1.897C413.129,255.027,413.979,256.507,413.59,257.944z"/>
			<path style="fill:#260603;" d="M415.404,263.607l-4.636-2.742c1.815-0.164,3.43-1.444,3.935-3.307
				c0.069-0.255,0.115-0.505,0.13-0.763L415.404,263.607z"/>
			<path style="fill:#260603;" d="M409.852,251.893c-1.033,0.103-1.992,0.576-2.702,1.301c0.08-1.104,0.201-2.842,0.201-2.842
				L409.852,251.893z"/>
			<path style="fill:#F9D7B1;" d="M412.377,256.811c-0.232,0.856-1.114,1.362-1.97,1.13c-0.856-0.232-1.362-1.114-1.13-1.97
				c0.232-0.856,1.114-1.362,1.97-1.13C412.102,255.073,412.608,255.955,412.377,256.811z"/>
			<path style="fill:#F9D7B1;" d="M412.859,258.232c-0.07,0.258-0.336,0.411-0.594,0.341c-0.258-0.07-0.41-0.336-0.341-0.594
				c0.07-0.258,0.336-0.411,0.594-0.341C412.776,257.708,412.929,257.974,412.859,258.232z"/>
			<path style="fill:none;stroke:#260603;stroke-miterlimit:10;" d="M408.321,245.456c2.14,0.602,4.379,1.26,5.953,2.83
				c1.755,1.75,2.362,4.302,3.158,6.649"/>
			<path style="fill:none;stroke:#260603;stroke-miterlimit:10;" d="M373.251,244.563c-2.004,1.562-2.839,4.183-3.277,6.685
				c-0.572,3.272-0.651,6.629-0.233,9.924c0.22,1.732,0.583,3.467,1.337,5.042c1.272,2.657,3.591,4.7,6.158,6.145
				c2.567,1.445,6.594,3.249,9.401,4.145c2.696,0.861,7.259,1.882,9.934,2.541"/>
			<path style="fill:none;stroke:#260603;stroke-miterlimit:10;" d="M400.472,224.663c2.259,0.15,4.59,0.318,6.607,1.348
				c1.008,0.515,1.899,1.227,2.782,1.934c4.151,3.325,8.449,6.833,10.642,11.678"/>
			<path style="fill:#260603;" d="M429.907,276.564c-0.766-0.069-2.003,0.309-2.187,1.168c-0.063,0.292-0.044,0.595,0.014,0.886
				c0.044,0.226,0.088,0.531,0.195,0.733c0.214,0.405,0.768,0.539,0.859,1.034c0.04,0.221-0.018,0.498,0.164,0.63
				c0.062,0.045,0.141,0.061,0.217,0.07c0.97,0.123,1.923-0.519,2.393-1.376c0.175-0.32,0.297-0.674,0.312-1.038
				C431.917,277.611,430.962,276.659,429.907,276.564z"/>
			<path style="fill:#915C55;" d="M429.598,282.807l-0.769-1.888c0,0,3.187-1.137,2.048-2.245c-1.14-1.108-3.046,0.615-3.046,0.615
				l-1.786-6.403l3.4,0.441c0,0,8.033,1.055,3.79,6.385C428.993,285.043,429.598,282.807,429.598,282.807z"/>
			<path style="fill:#260603;" d="M419.178,285.515c0.081,0.496,0.068,1.003,0.13,1.501c0.062,0.499,0.211,1.009,0.558,1.372
				c0.452,0.473,1.175,0.612,1.816,0.485c0.641-0.127,1.214-0.484,1.73-0.885c0.213-0.166,0.427-0.35,0.534-0.598
				c0.126-0.291,0.086-0.635-0.049-0.922c-0.135-0.287-0.355-0.526-0.588-0.741c-1.469-1.354-3.504-1.899-5.153-3.027
				c-0.375-0.257-0.703-0.564-1.056-0.844c0.074,0.52,0.881,1.135,1.185,1.578C418.716,284.061,419.055,284.759,419.178,285.515z"/>
			<path style="fill:#915C55;" d="M381.751,225.195c0.082-2.165,0.643-4.34,1.378-6.426c0.664-1.883,1.506-3.767,2.818-5.18
				c1.995-2.149,4.871-2.888,7.317-2.307c2.445,0.581,4.482,2.34,6.002,4.517c0.643,0.921,1.209,1.931,1.557,3.07
				c0.375,1.225,0.489,2.57,0.49,3.918c0.002,2.824-0.488,5.717-1.432,8.457c-2.928,0.261-5.858,1.049-8.788,1.392
				c-2.276,0.266-5.75,0.601-7.613-0.885C382.031,230.597,381.675,227.191,381.751,225.195z"/>
			<path style="fill:#F9D7B1;" d="M384.185,224.919c0.143-2.104,0.616-4.24,1.507-6.186c0.713-1.557,1.732-3.021,3.068-3.865
				c1.203-0.76,2.588-0.96,3.846-0.721c1.258,0.239,2.396,0.895,3.385,1.742c0.553,0.473,1.065,1.008,1.496,1.627
				c1.596,2.291,1.935,5.742,0.861,8.749c-0.106,0.297-0.268,0.632-0.533,0.702c-0.138,0.036-0.272-0.011-0.398-0.057
				c-0.645-0.236-1.29-0.473-1.935-0.709c-0.137-0.05-0.281-0.101-0.431-0.069c-0.394,0.084-0.602,0.663-0.973,0.871
				c-0.234,0.132-0.494,0.094-0.736,0.059c-0.838-0.12-1.692-0.161-2.552-0.124c-0.229,0.01-0.464,0.027-0.683,0.136
				c-0.284,0.141-0.509,0.417-0.733,0.674c-0.943,1.084-2.049,1.975-3.236,2.608c-0.423,0.226-1.551-1.59-1.678-1.998
				C384.127,227.296,384.105,226.09,384.185,224.919z"/>
		</g>
		<path style="fill:#915C55;" d="M242.503,281.893c-1.613,3.399-2.12,7.208-2.428,10.958c-0.176,2.148-0.25,4.478,0.956,6.266
			c1.69,2.506,5.414,2.941,8.162,1.682c2.747-1.259,4.685-3.788,6.274-6.358c2.27-3.67,4.073-7.627,5.353-11.748
			c0.616-1.984,1.082-4.253,0.036-6.048c-0.775-1.328-2.238-2.109-3.71-2.554C250.89,272.2,245.17,276.273,242.503,281.893z"/>
		<path style="fill:none;stroke:#260603;stroke-miterlimit:10;" d="M190.275,380.488l38.742-48.236l11.508-34.013
			c0,0-3.834-17.409,10.507-23.702c0,0,9.592-13.377,21.186-15.615l-1.593-0.867c0,0,13.188-6.263,45.008,3.178"/>
	</g>
</g>
</svg>
